<?xml version="1.0" encoding="utf-8"?>
<!-- Generator: Adobe Illustrator 18.1.1, SVG Export Plug-In . SVG Version: 6.00 Build 0)  -->
<svg version="1.1" id="Layer_1" xmlns="http://www.w3.org/2000/svg" xmlns:xlink="http://www.w3.org/1999/xlink" x="0px" y="0px"
	 viewBox="0 0 115.5 115.5" enable-background="new 0 0 115.5 115.5" xml:space="preserve">
<path fill="#FAFAFA" d="M113,2.5V113H2.5V2.5H113 M115,0.5H0.5V115H115V0.5L115,0.5z"/>
<g>
	<path fill="#FAFAFA" d="M31.4,17v1.1h-8.8v8.2h8.8v1.1h-8.8v8.2h8.8v1.1h-9.9V17H31.4z"/>
	<path fill="#FAFAFA" d="M48.1,29.9h-3.7v6.9h-1.1V17h5.2c1.5,0.2,2.8,0.8,3.9,1.9c1.3,1.3,1.9,2.8,1.9,4.6c0,1.8-0.6,3.3-1.9,4.6
		c-0.9,0.9-1.9,1.5-3,1.7l4.6,7.1h-1.4L48.1,29.9z M44.4,18.1v10.7h3.4c1.5,0,2.7-0.5,3.8-1.6c1-1,1.6-2.3,1.6-3.8
		c0-1.5-0.5-2.7-1.6-3.8c-1-1-2.3-1.6-3.8-1.6H44.4z"/>
	<path fill="#FAFAFA" d="M66.8,17v19.8h-1.1V17H66.8z"/>
	<path fill="#FAFAFA" d="M80.2,17l13.2,18.5V17h1.1v19.8h-1.7l-12.9-18v18h-1.1V17H80.2z"/>
	<path fill="#FAFAFA" d="M31.4,56.7l4.9,12.8l4.8-18h1.1L37,71.3h-1.1l-4.8-12.5l-4.8,12.5h-1.1l-5.3-19.8H21l4.9,18l4.9-12.8H31.4z
		"/>
	<path fill="#FAFAFA" d="M59,51.4v1.1h-8.8v8.2H59v1.1h-8.8v8.2H59v1.1h-9.9V51.4H59z"/>
	<path fill="#FAFAFA" d="M72.6,60.3c-1.4-0.5-2.5-1.1-3.3-1.9c-0.8-0.8-1.2-1.8-1.2-3c0-1.1,0.4-2.1,1.2-2.9c0.8-0.8,1.8-1.2,3-1.2
		c1.1,0,2.1,0.4,3,1.2c0.4,0.4,0.8,0.9,0.9,1.5l-1,0.4c-0.1-0.4-0.4-0.8-0.7-1.1c-0.6-0.6-1.3-0.9-2.2-0.9c-0.9,0-1.6,0.3-2.2,0.9
		c-0.6,0.6-0.9,1.3-0.9,2.2c0,0.9,0.3,1.6,0.9,2.2c0.6,0.6,1.3,1.1,2.3,1.5c1.6,0.5,2.9,1.3,4,2.4c1.1,1.1,1.7,2.5,1.7,4.1
		c0,1.6-0.6,3-1.7,4.2c-1.1,1.2-2.5,1.7-4.1,1.7c-1.6,0-3-0.6-4.2-1.7c-0.9-0.9-1.5-2-1.7-3.2l1.1-0.4c0.1,1.1,0.6,2,1.4,2.8
		c0.9,0.9,2.1,1.4,3.4,1.4c1.3,0,2.4-0.5,3.4-1.4s1.4-2.1,1.4-3.4c0-1.3-0.5-2.4-1.4-3.4C74.8,61.4,73.8,60.8,72.6,60.3z"/>
	<path fill="#FAFAFA" d="M90.6,52.6v18.7h-1.1V52.6h-5v-1.1h11.1v1.1H90.6z"/>
	<path fill="#FAFAFA" d="M30.4,96.5l0.5,0.5c-1.2,1.1-2.6,1.6-4.2,1.6c-1.7,0-3.2-0.6-4.4-1.8c-1.2-1.2-1.8-2.7-1.8-4.4
		c0-1.7,0.6-3.2,1.8-4.4c1.2-1.2,2.7-1.8,4.4-1.8c1.6,0,3,0.5,4.2,1.6l-0.5,0.5c-1-0.9-2.3-1.4-3.7-1.4c-1.5,0-2.8,0.5-3.9,1.6
		c-1.1,1.1-1.6,2.4-1.6,3.9c0,1.5,0.5,2.8,1.6,3.9c1.1,1.1,2.4,1.6,3.9,1.6C28.1,97.8,29.3,97.4,30.4,96.5z"/>
	<path fill="#FAFAFA" d="M39,86.3V87h-5.4v5H39v0.7h-5.4v5H39v0.7H33V86.3H39z"/>
	<path fill="#FAFAFA" d="M44.5,94.2h-2.3v4.2h-0.7V86.3h3.2c0.9,0.1,1.7,0.5,2.4,1.2c0.8,0.8,1.2,1.7,1.2,2.8c0,1.1-0.4,2-1.2,2.8
		c-0.5,0.5-1.2,0.9-1.8,1.1l2.8,4.3h-0.8L44.5,94.2z M42.3,87v6.5h2.1c0.9,0,1.7-0.3,2.3-1c0.6-0.6,1-1.4,1-2.3c0-0.9-0.3-1.7-1-2.3
		c-0.6-0.6-1.4-1-2.3-1H42.3z"/>
	<path fill="#FAFAFA" d="M49.7,98.4h-0.5l4.4-12.1h0.8l4.5,12.1L49.7,98.4L49.7,98.4z M57.9,97.7L54,87.1l-3.9,10.6H57.9z"/>
	<path fill="#FAFAFA" d="M71.1,86.3v12.1h-0.7V87l-4.7,6.1L61,87v11.4h-0.7V86.3h1l4.4,5.7l4.4-5.7H71.1z"/>
	<path fill="#FAFAFA" d="M74.2,86.3v12.1h-0.7V86.3H74.2z"/>
	<path fill="#FAFAFA" d="M86.3,96.5l0.5,0.5c-1.2,1.1-2.6,1.6-4.2,1.6c-1.7,0-3.2-0.6-4.4-1.8c-1.2-1.2-1.8-2.7-1.8-4.4
		c0-1.7,0.6-3.2,1.8-4.4c1.2-1.2,2.7-1.8,4.4-1.8c1.6,0,3,0.5,4.2,1.6l-0.5,0.5c-1-0.9-2.3-1.4-3.7-1.4c-1.5,0-2.8,0.5-3.9,1.6
		c-1.1,1.1-1.6,2.4-1.6,3.9c0,1.5,0.5,2.8,1.6,3.9c1.1,1.1,2.4,1.6,3.9,1.6C84.1,97.8,85.3,97.4,86.3,96.5z"/>
	<path fill="#FAFAFA" d="M92.2,91.7c-0.9-0.3-1.5-0.7-2-1.2c-0.5-0.5-0.7-1.1-0.7-1.8c0-0.7,0.2-1.3,0.7-1.8
		c0.5-0.5,1.1-0.8,1.8-0.8c0.7,0,1.3,0.3,1.8,0.8c0.3,0.3,0.5,0.6,0.6,0.9L93.8,88c-0.1-0.2-0.2-0.5-0.4-0.7
		C93,87,92.5,86.8,92,86.8s-1,0.2-1.3,0.5c-0.4,0.4-0.6,0.8-0.6,1.3c0,0.5,0.2,1,0.5,1.3c0.3,0.3,0.8,0.6,1.4,0.9
		c1,0.3,1.8,0.8,2.5,1.5c0.7,0.7,1,1.5,1,2.5c0,1-0.4,1.8-1,2.5c-0.7,0.7-1.5,1.1-2.5,1.1c-1,0-1.8-0.4-2.5-1.1
		c-0.6-0.6-0.9-1.2-1-2l0.6-0.2c0.1,0.7,0.3,1.2,0.8,1.7c0.6,0.6,1.3,0.9,2.1,0.9s1.5-0.3,2.1-0.9c0.6-0.6,0.9-1.3,0.9-2.1
		c0-0.8-0.3-1.5-0.9-2.1C93.6,92.4,93,92,92.2,91.7z"/>
</g>
</svg>
